<svg width="512" height="512" viewBox="0 0 512 512" xmlns="http://www.w3.org/2000/svg">
  <rect width="512" height="512" fill="#006D66" rx="85"/>
  <g transform="translate(128, 170)">
    <!-- Car icon (scaled up) -->
    <path d="M 64 140 L 43 85 C 37 72 43 64 53 64 L 203 64 C 213 64 219 72 213 85 L 192 140" 
          fill="none" stroke="white" stroke-width="11" stroke-linecap="round"/>
    <path d="M 21 140 L 21 181 C 21 192 27 197 37 197 L 48 197 C 53 197 59 192 59 181 L 59 171" 
          fill="none" stroke="white" stroke-width="11" stroke-linecap="round"/>
    <path d="M 197 171 L 197 181 C 197 192 203 197 208 197 L 219 197 C 229 197 235 192 235 181 L 235 140" 
          fill="none" stroke="white" stroke-width="11" stroke-linecap="round"/>
    <line x1="21" y1="140" x2="235" y2="140" stroke="white" stroke-width="11" stroke-linecap="round"/>
    <circle cx="64" cy="160" r="13" fill="white"/>
    <circle cx="192" cy="160" r="13" fill="white"/>
    <path d="M 75 85 L 85 85 L 96 64 L 160 64 L 171 85 L 181 85" 
          fill="none" stroke="white" stroke-width="8" stroke-linecap="round"/>
  </g>
</svg>
